<?xml version="1.0" encoding="utf-8"?>
<!-- Generator: Adobe Illustrator 24.3.0, SVG Export Plug-In . SVG Version: 6.00 Build 0)  -->
<svg version="1.1" id="Layer_1" xmlns="http://www.w3.org/2000/svg" xmlns:xlink="http://www.w3.org/1999/xlink" x="0px" y="0px"
	 viewBox="0 0 2000 2000" style="enable-background:new 0 0 2000 2000;" xml:space="preserve">
<style type="text/css">
	.st0{display:none;fill:none;stroke:#FFFFFF;stroke-width:7;stroke-miterlimit:10;}
	.st1{display:none;fill:none;stroke:#FFFFFF;stroke-width:2;stroke-miterlimit:10;}
	.st2{display:none;fill:#FFFFFF;}
	.st3{display:none;}
	.st4{display:inline;}
	.st5{fill:none;stroke:#FFFFFF;stroke-width:7;stroke-miterlimit:10;stroke-dasharray:50,0,0;}
	.st6{fill:none;stroke:#FFFFFF;stroke-width:7;stroke-miterlimit:10;}
	.st7{display:inline;fill:#606060;}
	.st8{display:none;fill:none;stroke:#FFFFFF;stroke-width:3;stroke-miterlimit:10;}
	.st9{display:inline;fill:none;stroke:#FFFFFF;stroke-width:3;stroke-miterlimit:10;}
	.st10{display:inline;fill:#FFFFFF;}
	.st11{display:none;fill:none;stroke:#FFFFFF;stroke-width:5;stroke-miterlimit:10;}
	.st12{fill:#0072F5;}
</style>
<g>
	<g>
		<path class="st12" d="M1016.11,852.27L1016.11,852.27c0,33.45,27.12,60.57,60.58,60.58l0-0.77v0.77
			c33.45,0,60.57-27.12,60.57-60.58c0-33.45-27.13-60.57-60.57-60.58c-1.85,0-3.68,0.12-5.49,0.29c2.87-2.72,5.97-5.3,9.27-7.71
			c14.51-10.62,32.38-18.15,46.57-22.94c7.1-2.4,13.27-4.13,17.66-5.25c2.19-0.56,3.94-0.97,5.13-1.24c0.6-0.13,1.05-0.23,1.36-0.3
			c0.15-0.03,0.27-0.06,0.35-0.07l0.1-0.02l0.76-0.15l-0.71-3.56l-0.3-3.62l-0.77,0.06c-30.03,2.5-52.72,8.61-69.88,16.48
			c-12.87,5.9-22.62,12.78-29.98,19.83c-10.28,9.85-15.84,19.99-18.81,28.03c-9.82,10.74-15.81,25.06-15.82,40.72h0L1016.11,852.27
			L1016.11,852.27C1016.11,852.26,1016.11,852.27,1016.11,852.27z M1063.76,782.09c9.16-6.87,21.41-13.38,37.76-18.47
			c-0.67,0.31-1.33,0.6-2,0.92c-12.77,6.15-25.71,14.14-35.79,24.44c-5.03,5.15-9.35,10.9-12.49,17.3
			c-3.12,6.34-5.07,13.33-5.43,20.89c-0.02,0.24-0.17,1.7-0.17,3.92c0.01,3.51,0.35,8.87,2.32,14.16c0.99,2.65,2.41,5.29,4.49,7.6
			c2.07,2.31,4.82,4.25,8.22,5.38l4.84,1.61v-4.32h0.15l-0.15-0.84c0-0.25,0.04-1.36,0.26-2.88c0.36-2.59,1.33-6.35,3.27-9.1
			c0.98-1.39,2.15-2.53,3.64-3.36c1.5-0.82,3.34-1.36,5.88-1.37c1.37,0,2.94,0.17,4.74,0.57c3.9,0.87,7.03,3.23,9.33,6.61
			c2.27,3.36,3.58,7.73,3.58,12.2v0.02l0,0.01c0,2.84-0.52,5.7-1.6,8.39c-1.63,4.04-4.48,7.69-8.94,10.42
			c-4.46,2.73-10.61,4.55-18.89,4.56c-7.17-0.01-12.44-1.76-16.57-4.49c-3.09-2.06-5.55-4.72-7.54-7.82
			c-2.98-4.63-4.86-10.25-5.95-15.83c-1.09-5.56-1.41-11.06-1.41-15.43l0-0.01v-0.04c0-2.75,0.12-5.06,0.24-6.67
			c0.06-0.8,0.12-1.43,0.16-1.85c0.02-0.21,0.04-0.37,0.05-0.47l0.01-0.09l0-0.02l0-0.01l0.03-0.21l0.01-0.05v-0.23l0-0.04
			c0.01-0.44,0.14-4.29,1.83-9.97C1040.39,808.43,1047.02,794.65,1063.76,782.09L1063.76,782.09z M1066.77,888.11L1066.77,888.11
			L1066.77,888.11l0.02,0c6.24,0,11.67-0.92,16.33-2.6c6.99-2.5,12.19-6.73,15.55-11.76c3.36-5.03,4.9-10.79,4.9-16.38
			c0-5.88-1.68-11.63-4.84-16.33c-3.15-4.7-7.9-8.37-13.83-9.68c-2.25-0.5-4.36-0.74-6.33-0.74c-2.47,0-4.72,0.38-6.73,1.08
			c-3.54,1.23-6.24,3.44-8.16,5.92c-2.88,3.71-4.17,7.93-4.84,11.21c-0.32-0.28-0.63-0.58-0.92-0.9c-1.97-2.17-3.26-5.21-4-8.33
			c-0.74-3.09-0.93-6.23-0.93-8.46l0,0v-0.05c0-1,0.04-1.81,0.07-2.36l0,0c0.02-0.27,0.03-0.47,0.04-0.61l0,0l0.02-0.15l0-0.03l0,0
			l0.01-0.08l0-0.02l0.01-0.12c0.29-6.59,1.96-12.59,4.69-18.17c1.49-3.03,3.31-5.93,5.4-8.71c4.29-1.14,8.81-1.76,13.45-1.76v0
			c14.7,0,27.99,5.95,37.63,15.59c9.64,9.64,15.59,22.93,15.59,37.63c0,14.71-5.95,27.99-15.59,37.63
			c-9.64,9.64-22.93,15.59-37.63,15.59c-14.71,0-27.99-5.95-37.63-15.59c-9.64-9.64-15.59-22.93-15.59-37.63
			c0-7.81,1.71-15.21,4.74-21.89c-0.12,1.72-0.23,4.03-0.23,6.75c0,4.21,0.26,9.38,1.17,14.84c1.37,8.17,4.17,17.05,10.04,24.13
			c2.94,3.53,6.67,6.58,11.28,8.7C1055.06,886.92,1060.49,888.11,1066.77,888.11z"/>
		<path class="st12" d="M851.05,753.7l-0.15,0.76c1.32,0.26,25.84,5.4,50.01,17.26c7.34,3.6,14.61,7.85,21.21,12.7
			c-31.74,1.9-56.91,28.21-56.92,60.43c0,33.45,27.12,60.57,60.58,60.57c33.45,0,60.57-27.12,60.57-60.57
			c0-19.24-9-36.41-23.02-47.48c-4.48-6.81-10.82-14.05-19.8-20.85c-18.08-13.71-46.64-25.6-91.67-29.35l-0.77-0.06l-0.3,3.62
			l-0.71,3.56l0.81,0.17L851.05,753.7z M964.18,815.61c1.24,3.67,1.85,6.72,2.16,8.83c0.15,1.05,0.22,1.86,0.26,2.4
			c0.02,0.26,0.02,0.45,0.03,0.57l0,0.13v0.01v0.77h0.07c0.11,0.99,0.44,4.29,0.44,8.79h0l0,0.02h0l0,0.05
			c0,3.89-0.25,8.67-1.07,13.59c-1.22,7.41-3.79,15.08-8.44,20.63c-2.33,2.79-5.15,5.09-8.71,6.73c-3.56,1.64-7.87,2.63-13.25,2.64
			c-5.52,0-10.09-0.82-13.85-2.16c-5.63-2.03-9.43-5.21-11.93-8.93c-2.49-3.71-3.65-8.03-3.65-12.29l0-0.03
			c0-4.47,1.31-8.84,3.59-12.2c2.29-3.38,5.43-5.74,9.33-6.61c1.79-0.4,3.37-0.57,4.74-0.57c1.72,0,3.12,0.26,4.31,0.67
			c2.07,0.73,3.56,1.93,4.8,3.5c1.83,2.32,2.92,5.54,3.43,8.15c0.26,1.31,0.4,2.46,0.46,3.27c0.03,0.4,0.05,0.71,0.05,0.92
			l0.01,0.22v0.04v0v5.1l4.84-1.61c3.4-1.13,6.15-3.07,8.22-5.38c3.11-3.47,4.76-7.67,5.69-11.56c0.92-3.9,1.12-7.58,1.13-10.21
			c0-2.2-0.14-3.65-0.17-3.91c-0.35-7.57-2.31-14.56-5.43-20.9c-5.52-11.2-14.56-20.39-24.88-27.94
			c-7.97-5.82-16.72-10.67-25.33-14.7c6.52,2.03,12.4,4.28,17.67,6.7c12.18,5.58,21.21,12,27.95,18.46v0
			C956.73,798.48,961.7,808.27,964.18,815.61z M974.49,837.13c0-5.25-0.41-8.99-0.51-9.86c-0.02-0.75-0.14-3.14-0.85-6.66
			c3.74,7.27,5.87,15.5,5.87,24.24c0,14.71-5.95,27.99-15.59,37.63c-9.64,9.64-22.93,15.59-37.63,15.59
			c-14.71,0-27.99-5.95-37.63-15.59c-9.64-9.64-15.59-22.93-15.59-37.63c0-14.71,5.95-27.99,15.59-37.63
			c9.64-9.64,22.93-15.59,37.63-15.59c1.86,0,3.69,0.12,5.48,0.33c0.9,0.86,1.79,1.72,2.64,2.6c4.47,4.66,8.19,9.73,10.86,15.23
			c2.66,5.5,4.28,11.43,4.57,17.91h0l0,0.09l0,0.04l0.01,0.11c0.01,0.09,0.13,1.3,0.13,3.16l0,0.09c0,2.98-0.37,7.55-1.85,11.49
			c-0.75,1.99-1.76,3.81-3.07,5.27c-0.29,0.32-0.59,0.62-0.92,0.9c-0.59-2.98-1.72-6.7-4.05-10.14c-1.48-2.17-3.48-4.23-6.12-5.72
			c-2.63-1.49-5.84-2.36-9.53-2.36l-0.03,0v0c0,0,0,0,0,0l-0.02,0v0c-1.97,0-4.07,0.24-6.31,0.74c-5.93,1.31-10.68,4.98-13.83,9.68
			c-3.16,4.7-4.83,10.45-4.84,16.33c0,3.73,0.68,7.53,2.13,11.14c2.17,5.42,6.12,10.41,11.92,13.95c5.8,3.55,13.36,5.64,22.72,5.64
			l0.05,0c8.36,0,15.22-2.14,20.6-5.73c4.04-2.69,7.2-6.16,9.65-9.96c3.67-5.72,5.76-12.19,6.98-18.39
			C974.16,847.82,974.49,841.86,974.49,837.13z"/>
		<polygon class="st12" points="998.76,951.52 999.42,950.38 1024.45,907.83 998.76,879.57 973.06,907.83 		"/>
		<path class="st12" d="M1125.31,1143.63c92.88-46.13,156.68-141.95,156.69-252.68c0-155.75-126.25-282-282-282
			c-155.75,0-282,126.25-282,282h0l0,0.01c0,53.61,16.25,103.84,43.47,146.59c27.11,42.57,65.08,77.75,108.83,101.6l0.06,0.06
			l0.05,0.03c14.75,15.63,30.79,28.42,46.38,38.81H793.3v5.03h131.34c0.28,0.1,0.51,0.1,0.74,0.11c0.48,0,0.93-0.08,1.09-0.11h1.01
			h19.52h105.96h19.53h134.2v-5.03h-123.5C1097.3,1168.64,1111.77,1157.28,1125.31,1143.63z M1120.53,1138.02L1120.53,1138.02
			c-15.16,15.35-33.85,29.87-49.82,40.01h-12.49c17.4-18.34,35.68-44.81,50-82.66c15.67-41.4,26.62-96.36,26.69-169.1
			c4.93,2.21,13,6.55,21,13.96c6.37,5.9,12.69,13.71,17.43,23.98c4.74,10.27,7.94,23.01,7.94,38.89c0,16.02-3.27,35.23-11.57,58.19
			C1158.4,1092.52,1140.57,1117.77,1120.53,1138.02L1120.53,1138.02L1120.53,1138.02z M1127.57,925.62
			c0,72.33-10.86,126.59-26.22,167.15c-15.06,39.78-34.44,66.41-52.26,84.1h-98.2c-17.81-17.7-37.19-44.33-52.26-84.11
			c-15.36-40.56-26.22-94.82-26.22-167.15c0-0.87,0.01-1.75,0.01-2.63c2.75,3.2,6.4,6.87,11.12,10.55
			c12.21,9.54,31.61,18.92,60.06,19.68c-4.39,19.64-6.3,37.2-6.3,52.85l0,0.02c0,23.8,4.4,43.24,11.06,58.94
			c9.99,23.57,25.03,38.68,37.56,47.85c12.53,9.17,22.58,12.47,22.83,12.55l0.01,0l0.95,0.31l0.25,0.08l1.19-0.43l0.01,0
			c0.35-0.13,15.83-5.81,31.31-23.03c7.74-8.61,15.45-20.1,21.21-35.15c5.76-15.05,9.57-33.64,9.57-56.4
			c0-16.97-2.13-36.28-7.1-58.18c24.62-2.53,41.51-11.74,52.22-20.64c3.81-3.16,6.83-6.26,9.19-9
			C1127.56,923.86,1127.57,924.74,1127.57,925.62z M929.37,1177.4c-17.95-11.09-36.97-25.46-54.06-43.69l-0.36-0.38l-0.09-0.1
			l-0.02-0.01c-18.15-19.4-34.14-43.11-44.56-71.93c-8.3-22.95-11.57-42.16-11.57-58.17c0-15.87,3.19-28.62,7.94-38.89
			c7.12-15.4,17.8-25.31,26.81-31.44c4.54-3.08,8.64-5.18,11.61-6.52c0.07,72.73,11.02,127.69,26.7,169.09
			c14.33,37.85,32.6,64.33,50,82.67h-10.94L929.37,1177.4z M1000,616.29c75.86,0,144.49,30.73,194.21,80.44
			c49.71,49.71,80.44,118.35,80.44,194.21h0l0,0.01c0,100.38-53.87,188.13-134.26,236.04c14.62-17.77,27.37-38.71,36.23-63.2
			c8.54-23.61,12.01-43.67,12.01-60.69l0-0.04l0,0c0-16.97-3.48-30.91-8.74-42.19c-7.9-16.95-19.77-27.82-29.62-34.42
			c-6.6-4.43-12.28-6.95-15.4-8.16c-0.02-2.22-0.04-4.45-0.08-6.71l-0.27-14.94l-6.69,13.37c-0.09,0.18-4.3,8.3-14.64,16.72
			c-10.35,8.42-26.78,17.23-51.82,18.96l-4.34,0.3l1.02,4.23c5.55,23.13,7.85,43.21,7.85,60.59c0,21.95-3.66,39.6-9.08,53.77
			c-8.14,21.25-20.28,34.72-30.36,42.92c-5.04,4.1-9.56,6.87-12.79,8.6c-1.62,0.87-2.91,1.47-3.78,1.86l0,0l-0.07,0.03
			c-4.11-1.59-18.19-7.75-32.17-21.94c-8.26-8.37-16.48-19.53-22.67-34.24c-6.18-14.72-10.33-33.01-10.33-55.74
			c0-16.19,2.11-34.63,7.11-55.59l1.09-4.55l-4.68,0.02c-0.27,0-0.55,0-0.81,0c-28.96-0.02-47.66-9.18-59.29-18.22
			c-5.81-4.52-9.83-9.04-12.37-12.39c-1.27-1.67-2.18-3.05-2.76-4c-0.28-0.47-0.49-0.82-0.62-1.06l-0.14-0.26l0,0l-0.02-0.05
			l-0.01-0.01l-6.68-13.35l-0.27,14.95c-0.04,2.26-0.06,4.48-0.08,6.71c-4.74,1.85-15.37,6.7-26.02,16.56
			c-6.96,6.45-13.92,15.05-19.11,26.3c-5.2,11.24-8.62,25.1-8.62,41.95l0,0v0h0l0,0.02h0c0,17.02,3.47,37.07,12,60.67
			c8.01,22.14,19.21,41.32,32.08,57.93c-34.91-22.55-65.23-52.73-87.77-88.14c-26.53-41.68-42.32-90.53-42.32-142.65
			c0-75.86,30.73-144.49,80.44-194.21C855.51,647.03,924.14,616.3,1000,616.29z"/>
	</g>
</g>
<g>
	<g>
		<path class="st12" d="M789.15,1229.42l104.96,129.03v-129.03h11.81v156h-4.68l-105.19-128.81v128.81h-12.03v-156H789.15z"/>
		<path class="st12" d="M923.76,1403.7l83.12-187.42h12.03l-83.35,187.42H923.76z"/>
		<path class="st12" d="M1188.51,1307.65c-0.22,41.01-26.3,80.45-78.67,80.45c-52.37,0-78.67-39.67-78.67-80.9
			c0-41.9,26.07-80.23,78.67-80.23S1188.73,1265.53,1188.51,1307.65z M1042.98,1307.42c0.22,35.21,22.51,69.53,66.86,69.53
			c44.57,0,67.08-34.32,67.08-69.53c0-36.1-22.29-69.31-67.08-69.31C1065.04,1238.11,1042.76,1270.65,1042.98,1307.42z"/>
	</g>
</g>
</svg>
